.
..............................Site Info...........................

 -   http://www.scenetime.com  *_*   

SceneTime is going to Close sign up on march/1, hurry up! get in before the doors are closed.

     We care to share . Join us on  http://www.scenetime.com 

    Be the first to get new release at  http://www.scenetime.com

        Seed back for speed


...................................NFO:.................................................                                                                                                     
       
     
     
       
       
     
     
                                         
                                         
                EXVID                    
                                         
         
                                         
         Filled the Archives             
                                         
         
                                         
                With:                    
                                         
         
                                         
                                    
     E240                           
                                    
     SP               (C) 2009      
                                         
     
     
     
                                                                                  
                                                                                   
                 Pootie.Tang.2001.iNTERNAL.DVDRip.XviD-EXViDiNT                     
                                                                                   
                                                                                  
     
                                                                                               
EXViD aims to iNTERNAL those releases which have been lost in the archives.
EXViD aims to PRE non-internal releases which have poor sources and are likely skipped by others. 
http://www.imdb.com/title/tt0258038/
Subtitles: EN, FR, CS, HU, PL, SV, DA, NO, FI, NL, BG, IS, PT, IW, EL, HR, SL, AR, TR, RO
Date: 2012.02

Director: Louis C.K.

Genres: Comedy | Musical | Adventure | Action

Plot:
Pootie Tang, the musician/actor/folk hero of the ghetto, is chronicled from his early childhood
to his battles against the evil Corporate America, who try to steal his magic belt and make him
sell out by endorsing addictive products to his people. Pootie must learn to find himself and
defeat the evil corporation for all the young black children of America, supatime.

Cast:
Lance Crouther	...	Pootie Tang
J.B....	Trucky
Jennifer Coolidge	...	Ireenie
Reg E. Cathey	...	Dirty Dee
Robert Vaughn	...	Dick Lecter
Wanda Sykes	...	Biggie Shorty
Chris Rock	...	JB / Radio DJ / Pootie's Father
Mario Joyner	...	Lacey
Cathy Trien	...	Stacy
Dave Attell	...	Frank
Laura Kightlinger	...	Anchor Woman
Christopher Wynkoop	...	Sheriff
Rick Shapiro	...	Shakey
Qiana Drew	...	Singing Lady
Lorria Richards	...	Singing Lady

Stats:
Format                                   : AVI
Format/Info                              : Audio Video Interleave
File size                                : 701 MiB
Duration                                 : 1h 18mn
Overall bit rate mode                    : Variable
Overall bit rate                         : 1 256 Kbps

Video
ID                                       : 0
Format                                   : MPEG-4 Visual
Format profile                           : Advanced Simple@L5
Format settings, BVOP                    : 2
Format settings, QPel                    : No
Format settings, GMC                     : No warppoints
Format settings, Matrix                  : Default (H.263)
Codec ID                                 : XVID
Codec ID/Hint                            : XviD
Duration                                 : 1h 18mn
Bit rate                                 : 1 113 Kbps
Width                                    : 640 pixels
Height                                   : 368 pixels
Display aspect ratio                     : 16:9
Frame rate                               : 25.000 fps
Color space                              : YUV
Chroma subsampling                       : 4:2:0
Bit depth                                : 8 bits
Scan type                                : Progressive
Compression mode                         : Lossy
Bits/(Pixel*Frame)                       : 0.189
Stream size                              : 621 MiB (89%)
Writing library                          : XviD 64

Audio
ID                                       : 1
Format                                   : MPEG Audio
Format version                           : Version 1
Format profile                           : Layer 3
Mode                                     : Joint stereo
Mode extension                           : MS Stereo
Codec ID                                 : 55
Codec ID/Hint                            : MP3
Duration                                 : 1h 18mn
Bit rate mode                            : Variable
Bit rate                                 : 128 Kbps
Channel(s)                               : 2 channels
Sampling rate                            : 48.0 KHz
Compression mode                         : Lossy
Stream size                              : 72.8 MiB (10%)
Alignment                                : Aligned on interleaves
Interleave, duration                     : 24 ms (0.60 video frame)
Interleave, preload duration             : 132 ms



Release notes:
Enjoy!

Looking for:
75TB+ Archives
DUTCH/FLEMiSH Archives
                                                                                                    
Greets: CRBS EPiSODE FiCO FLS iLS KLASSiGER LiPSYNC MADE NODLABS RUNNER SPRiNTER      
   

                                                                    ASCII DONE BY XX^NFO 2oo9     
 

RLS-Crc: 415243414445:42EECD90